<?xml version="1.0" standalone="no"?>
<!DOCTYPE svg PUBLIC "-//W3C//DTD SVG 20010904//EN"
 "http://www.w3.org/TR/2001/REC-SVG-20010904/DTD/svg10.dtd">
<svg version="1.0" xmlns="http://www.w3.org/2000/svg"
 width="1024.000000pt" height="1024.000000pt" viewBox="0 0 1024.000000 1024.000000"
 preserveAspectRatio="xMidYMid meet">
<metadata>
Created by potrace 1.16, written by Peter Selinger 2001-2019
</metadata>
<g transform="translate(0.000000,1024.000000) scale(0.100000,-0.100000)"
fill="#000000" stroke="none">
<path d="M902 10153 l3 -88 80 0 80 0 3 88 3 87 -86 0 -86 0 3 -87z"/>
<path d="M1252 10153 l3 -88 83 -3 82 -3 0 91 0 90 -85 0 -86 0 3 -87z"/>
<path d="M1612 10153 l3 -88 83 -5 84 -5 1 -93 2 -92 -83 0 c-98 0 -96 2 -97
-115 l0 -80 -85 3 c-50 2 -88 8 -92 15 -4 7 -8 49 -8 95 l0 82 -85 0 -84 0 -3
-92 -3 -93 -87 -3 -88 -3 -2 43 c-1 24 -3 59 -3 79 -3 69 -7 73 -86 66 -39 -3
-74 -8 -76 -11 -3 -3 -8 -25 -10 -51 l-6 -45 37 0 c33 0 36 -2 36 -30 0 -29 2
-30 44 -30 26 0 46 5 49 13 8 22 18 -77 15 -148 l-3 -70 -81 -3 -82 -3 -6 -40
c-4 -22 -4 -63 0 -90 l7 -49 83 0 84 0 0 90 0 90 90 0 90 0 0 -89 0 -89 -49
-7 c-27 -4 -67 -5 -88 -3 l-38 3 -3 -93 -3 -92 -88 0 -88 0 -6 81 c-3 44 -7
82 -9 83 -1 2 -20 1 -40 -2 -29 -3 -38 -9 -38 -23 0 -12 7 -19 20 -19 13 0 20
-7 20 -20 0 -11 6 -20 14 -20 14 0 20 -36 32 -192 l7 -78 88 0 88 0 3 93 3 92
85 5 85 5 2 75 c1 41 2 81 2 88 1 9 26 12 91 12 l90 0 0 -90 0 -90 79 0 c44 0
82 -4 85 -9 3 -5 9 -47 12 -94 8 -98 6 -97 112 -97 l62 0 0 -89 0 -90 -85 -3
-84 -3 -3 95 -3 95 -88 3 -89 3 3 87 3 87 -54 7 c-30 3 -72 6 -92 7 l-38 1 0
-95 0 -95 90 0 90 0 0 -100 0 -100 -74 0 c-109 0 -106 -3 -106 100 0 49 -4 91
-9 95 -6 3 -46 3 -90 -1 l-80 -7 -3 -88 -3 -89 93 0 92 0 0 -95 0 -95 -122 1
c-68 0 -147 -3 -175 -7 l-53 -7 0 -93 0 -94 85 0 85 0 0 -95 0 -95 -85 0 -85
0 0 -95 0 -95 -90 0 -90 0 0 89 c0 104 3 101 -106 101 l-74 0 0 73 c0 118 1
116 -94 119 l-81 3 -3 93 -3 92 -83 0 -83 0 -7 53 c-3 28 -6 71 -6 93 0 38 2
42 31 48 17 3 60 6 95 6 l64 0 0 -100 0 -100 85 0 85 0 0 94 c0 109 3 106
-100 106 -80 0 -80 0 -80 101 0 65 2 70 26 79 14 6 55 10 92 10 l67 0 -3 90
-3 90 -80 0 c-43 0 -82 0 -86 0 -5 0 -9 -39 -10 -87 -1 -49 -2 -91 -2 -95 -1
-5 -39 -8 -86 -8 l-85 0 0 -79 c0 -44 -2 -86 -5 -93 -4 -11 -25 -13 -93 -10
l-88 4 -1 -123 c0 -68 1 -112 4 -97 4 26 4 26 89 25 l84 -2 0 -98 0 -99 -90 4
-90 3 0 -97 c0 -91 1 -98 20 -98 11 0 20 -4 20 -8 0 -5 25 -7 55 -4 77 6 85
-3 85 -99 l0 -79 -90 0 -90 0 0 -200 0 -200 43 -1 c23 -1 61 -2 84 -3 24 0 43
4 44 9 0 6 4 1 8 -10 4 -11 6 -55 3 -99 l-4 -79 -80 6 c-76 5 -108 15 -80 24
6 3 10 9 6 14 -19 31 -24 -10 -24 -202 l0 -211 93 6 c57 3 81 2 62 -3 -16 -5
-58 -9 -92 -10 l-63 -1 0 -3505 0 -3505 5120 0 5120 0 0 5120 0 5120 -3380 0
-3380 0 0 -40 c0 -22 5 -40 10 -40 6 0 10 -9 10 -20 0 -11 -4 -20 -10 -20 -5
0 -10 -12 -10 -26 0 -20 -4 -25 -16 -20 -9 3 -27 6 -40 6 -21 0 -24 4 -24 40
0 33 3 40 20 40 17 0 20 7 20 40 0 44 -25 58 -33 18 l-4 -23 -2 23 c-1 21 -5
22 -95 22 l-94 0 -7 -49 c-4 -27 -5 -67 -3 -88 l3 -38 -85 0 -85 0 -3 88 -3
87 -91 0 -91 0 5 -90 5 -90 -93 0 -94 0 0 90 0 90 -85 0 -85 0 0 -90 0 -90
-90 0 -90 0 0 -95 0 -95 -52 0 c-29 0 -70 -3 -91 -7 l-39 -6 4 -90 3 -89 -53
5 c-28 3 -65 2 -82 -3 -31 -9 -44 0 -53 35 -4 17 -5 16 -6 -5 -1 -24 -3 -25
-76 -25 -65 0 -75 2 -75 18 0 9 -5 17 -10 17 -7 0 -10 25 -8 68 l3 67 145 6
c80 4 160 7 179 8 l33 1 -4 104 c-2 58 -1 100 3 95 3 -6 42 -9 90 -7 l84 3 3
88 3 87 -180 0 -180 0 -3 -87 -3 -88 -82 -3 -83 -3 0 38 c0 21 -3 62 -6 91
l-7 52 -84 0 -84 0 3 -87z m1048 -195 l-5 -83 -77 -3 -78 -3 0 -95 0 -95 -87
3 -88 3 -1 85 c-1 52 3 88 10 92 6 4 46 8 89 8 l77 0 0 90 0 89 73 3 c39 2 77
0 82 -4 6 -4 8 -39 5 -90z m370 8 l0 -93 -84 -2 c-46 -1 -87 2 -90 7 -3 5 -2
48 1 95 l6 87 83 0 84 0 0 -94z m170 -191 l0 -96 -77 7 c-43 4 -79 7 -80 8 -2
1 -5 154 -4 169 1 4 37 7 81 7 l80 0 0 -95z m-355 -2 l0 -88 -60 -2 c-33 -1
-72 -2 -87 -2 l-27 -1 -3 -91 -3 -90 -70 -3 c-38 -2 -76 -1 -82 2 -9 3 -13 30
-13 88 l0 84 58 -1 c31 -1 45 -4 30 -6 -41 -6 -34 -23 8 -23 59 0 74 26 74
130 l0 86 88 3 87 2 0 -88z m-1425 -102 c5 -11 10 -56 10 -100 l0 -81 84 0 83
0 7 -61 c3 -34 6 -77 6 -95 l0 -34 85 0 85 0 0 -90 0 -90 -85 0 -85 0 0 90 0
90 -89 0 -88 0 -7 55 c-3 30 -3 73 0 95 l6 39 -88 3 -89 3 -3 92 c-3 105 -9
99 100 102 47 1 59 -2 68 -18z m900 -80 c0 -105 3 -102 -108 -99 l-73 2 3 86
3 85 35 6 c19 4 59 7 88 8 l52 1 0 -89z m-540 27 c0 -29 3 -70 6 -90 l6 -37
82 -3 81 -3 0 -85 0 -85 -85 0 -85 0 -3 88 -3 87 -83 0 c-97 0 -96 -1 -96 107
0 71 -2 70 108 72 l72 1 0 -52z m1245 40 c3 -3 2 -39 -1 -82 l-7 -77 -81 3
-81 3 -3 45 c-5 70 5 108 31 113 26 6 135 2 142 -5z m654 -9 c20 -1 28 -3 19
-6 -25 -6 -23 -43 2 -43 13 0 20 -7 20 -20 0 -11 7 -20 15 -20 10 0 15 -10 15
-30 l0 -30 -85 0 -85 0 0 81 0 82 31 -7 c17 -3 48 -7 68 -7z m-1189 -193 c0
-18 3 -61 6 -95 l7 -62 -88 3 -88 3 2 85 c1 46 5 88 7 92 3 4 39 8 80 8 l74 0
0 -34z m357 -58 l5 -88 -86 0 -86 0 0 90 0 91 81 -3 81 -3 5 -87z m-533 -167
c8 -83 -3 -121 -36 -117 -13 1 -28 5 -33 8 -16 10 -79 13 -93 4 -8 -5 -12 0
-12 16 0 15 -3 19 -8 10 -5 -6 -30 -14 -58 -17 -27 -3 -61 -6 -75 -8 -26 -4
-26 -3 -32 72 -3 45 -2 80 4 88 7 8 57 12 173 11 l164 0 6 -67z m356 -26 l0
-85 -79 0 -78 0 -7 61 c-12 118 -18 109 79 109 l85 0 0 -85z m354 63 c3 -13 6
-51 6 -86 l0 -63 -87 3 -88 3 0 75 c0 41 1 77 2 80 1 3 37 6 81 8 75 2 80 1
86 -20z m-1175 -168 c20 0 41 4 47 10 5 5 19 7 30 4 19 -5 22 -16 27 -86 4
-44 4 -85 1 -89 -3 -5 -40 -9 -84 -9 -62 0 -79 3 -84 16 -11 29 -6 150 6 162
8 8 14 9 16 2 2 -5 20 -10 41 -10z m1000 -88 l1 -73 -87 3 -88 3 -3 70 -3 70
63 3 c35 2 72 9 83 16 27 18 33 2 34 -92z m-349 8 l0 -91 -79 2 c-90 3 -91 4
-91 92 0 76 12 87 97 87 l73 0 0 -90z m-360 -190 l0 -90 -85 0 c-80 0 -85 1
-89 23 -4 18 -2 145 3 155 0 1 39 2 86 2 l85 0 0 -90z m-537 -107 c2 -5 1 -47
-1 -95 l-4 -88 -84 0 -84 0 0 -62 c0 -109 1 -108 -96 -108 l-84 0 0 85 0 85
90 0 90 0 0 95 0 95 84 0 c47 0 87 -3 89 -7z m354 -83 c2 -47 5 -89 7 -95 2
-6 38 -9 90 -7 l86 3 0 95 0 94 84 0 83 0 1 -27 c1 -16 4 -58 8 -95 l6 -68
-90 0 -91 0 -3 -87 -3 -88 -77 0 c-42 0 -80 4 -85 8 -4 5 -8 43 -8 85 l0 77
-80 3 c-44 2 -84 7 -89 12 -11 11 -16 163 -5 170 4 3 42 5 85 5 l78 0 3 -85z
m-173 -181 c4 -44 5 -83 2 -87 -2 -4 -43 -6 -90 -4 l-86 3 0 79 c0 90 -4 87
101 89 l66 1 7 -81z m3615 -130 c154 -24 265 -61 421 -139 384 -193 697 -533
832 -905 75 -207 103 -388 95 -605 -11 -276 -65 -489 -178 -711 -80 -154 -167
-269 -314 -414 -143 -142 -249 -220 -399 -295 -114 -57 -116 -59 -131 -132 -7
-37 -40 -66 -84 -72 -56 -8 -1024 0 -1044 9 -10 4 -24 20 -32 35 -13 25 -13
34 1 71 8 24 24 59 35 78 11 19 17 37 12 40 -4 3 -14 16 -21 29 -10 18 -10 22
0 22 32 1 -41 29 -76 30 -22 0 -54 5 -72 12 -28 10 -35 9 -62 -13 -17 -13 -31
-30 -31 -36 -1 -7 -8 -13 -16 -13 -8 0 -15 -9 -15 -20 0 -11 -1 -20 -3 -20 -1
0 -17 -4 -36 -10 -30 -8 -33 -7 -28 10 6 22 -8 28 -16 8 -4 -10 -8 -10 -14 -1
-5 7 -48 14 -108 17 -55 2 -122 8 -149 11 -29 4 -51 3 -55 -3 -3 -5 -24 -19
-45 -31 -35 -20 -43 -21 -89 -10 -39 9 -51 9 -57 -1 -9 -15 -30 -4 -30 16 0 8
-4 14 -10 14 -5 0 -10 -4 -10 -10 0 -5 -8 -10 -17 -10 -12 0 -14 3 -7 8 9 5 8
10 -1 19 -11 10 -15 6 -20 -19 -9 -40 -35 -101 -41 -96 -2 3 0 18 5 34 17 55
120 459 137 539 9 44 17 94 17 110 1 18 -28 92 -65 171 -117 249 -158 427
-158 682 0 299 60 525 210 796 70 127 163 247 272 352 51 49 91 93 90 99 -2 5
-1 7 3 3 4 -4 40 19 80 51 40 32 100 75 133 95 175 106 431 196 617 216 50 6
106 12 125 14 62 6 221 -5 349 -25z m-5030 -41 c1 -34 -2 -77 -5 -95 l-6 -33
-83 0 -82 0 -7 53 c-3 28 -6 71 -6 95 l0 42 94 0 93 0 2 -62z m1056 45 c-3 -8
-5 -49 -5 -92 0 -75 -1 -77 -25 -79 -14 -1 -25 3 -25 9 0 7 -22 10 -60 7 l-60
-3 1 50 c0 28 5 59 10 70 8 17 8 15 4 -7 -3 -16 -1 -28 5 -28 5 0 10 5 10 10
0 6 9 10 20 10 11 0 20 7 20 15 0 10 11 15 38 16 25 1 29 3 12 6 -70 11 -75
17 -20 23 82 8 81 8 75 -7z m495 2 c0 -8 6 -15 13 -16 10 0 10 -2 0 -6 -17 -6
-16 -21 2 -39 8 -9 15 -30 15 -49 l0 -33 -75 -7 c-42 -4 -77 -6 -79 -4 -2 2
-6 41 -8 87 l-3 82 67 0 c54 0 68 -3 68 -15z m-689 -175 c17 0 19 -8 19 -94 0
-53 -4 -98 -10 -101 -6 -4 -46 -3 -90 1 l-80 7 0 93 0 93 58 4 c31 1 63 2 70
0 8 -2 22 -3 33 -3z m-687 -46 c3 -26 6 -69 6 -95 l0 -49 -94 0 -94 0 0 63
c-1 34 4 77 9 95 l11 32 77 0 78 0 7 -46z m955 38 c30 5 58 5 75 -2 25 -9 26
-12 26 -95 l0 -85 -85 0 -85 0 0 97 c0 68 3 94 11 86 7 -7 26 -7 58 -1z m-777
-269 c2 -49 2 -91 0 -95 -2 -5 -41 -8 -88 -8 l-84 0 0 88 c0 49 3 92 7 95 3 4
41 7 84 7 l78 0 3 -87z m346 -10 l-3 -88 -82 -3 c-96 -3 -98 -1 -88 105 l7 68
84 3 85 2 -3 -87z m356 55 c3 -17 6 -59 6 -94 l0 -64 -54 0 c-29 0 -67 3 -83
6 -30 6 -30 7 -37 85 -4 44 -5 83 -2 87 2 4 40 8 84 9 l80 1 6 -30z m351 -58
l0 -85 -84 -3 -83 -3 4 76 c2 41 0 75 -4 75 -5 0 -8 6 -8 13 0 9 24 12 88 12
l87 0 0 -85z m-1417 -192 l-3 -93 -80 0 -80 0 -3 93 -3 92 86 0 86 0 -3 -92z
m531 30 c0 -58 -16 -132 -18 -85 -1 20 -31 24 -31 3 0 -19 -22 -26 -81 -26
-33 0 -49 -4 -49 -12 0 -10 -21 -12 -80 -10 -80 4 -80 4 -79 30 1 15 5 38 9
52 8 24 8 24 9 3 1 -19 7 -23 36 -23 34 0 35 1 35 40 0 36 3 40 25 40 18 0 25
5 25 20 0 11 5 20 10 20 6 0 10 -27 10 -60 0 -33 4 -60 10 -60 6 0 10 18 10
40 0 29 4 40 15 40 8 0 15 7 15 15 0 8 -7 15 -15 15 -8 0 -15 5 -15 10 0 6 33
10 80 10 l80 0 -1 -62z m361 -38 l0 -90 -77 6 c-43 4 -81 9 -85 13 -7 6 -12
74 -9 128 l1 32 78 3 c42 2 80 2 85 0 4 -2 7 -43 7 -92z m350 0 l0 -91 -82 3
-83 3 -1 55 c-1 75 2 80 47 80 56 0 53 28 -3 33 -24 2 -6 4 40 5 l82 2 0 -90z
m-627 -101 l88 -12 -3 -76 -3 -76 -63 -3 c-60 -3 -63 -2 -74 25 l-12 28 -4
-33 -3 -33 -87 3 -87 3 -3 87 -3 87 33 3 c89 8 140 8 221 -3z m-433 -94 l0
-95 84 0 84 0 7 -86 c9 -100 4 -106 -59 -92 -22 5 -52 12 -66 14 -38 7 -50 32
-50 100 0 72 -3 74 -109 74 l-64 0 6 48 c3 26 2 65 -2 87 l-7 40 88 2 88 3 0
-95z m880 8 l0 -88 -82 5 -83 5 -3 52 c-2 34 2 62 13 80 l16 28 -6 -40 c-3
-22 -1 -47 5 -55 6 -10 10 -11 10 -2 0 6 7 12 15 12 8 0 15 9 15 20 0 11 7 20
15 20 9 0 27 11 41 25 14 14 29 25 34 25 6 0 10 -39 10 -87z m-1062 -195 l3
-86 -75 -7 c-41 -4 -79 -4 -85 -1 -7 4 -11 42 -11 91 l0 84 68 4 c37 2 74 3
82 3 12 -1 16 -19 18 -88z m2 -598 l0 -70 -80 0 -80 0 0 30 c0 23 4 30 20 30
13 0 20 7 20 20 0 17 7 20 40 20 33 0 40 3 40 20 0 13 7 20 20 20 18 0 20 -7
20 -70z m5311 -1798 c44 -44 52 -89 23 -131 -36 -51 -46 -52 -567 -45 -530 7
-513 5 -544 69 -16 33 -16 37 0 71 12 24 30 41 58 54 39 17 78 18 516 19 l475
2 39 -39z m-36 -317 c14 -13 25 -33 25 -45 0 -31 -36 -95 -66 -119 -32 -25
-114 -51 -162 -51 -29 0 -33 3 -26 18 11 24 14 143 3 136 -5 -3 -9 9 -9 25 0
25 -4 31 -22 31 -19 0 -20 2 -8 10 10 6 -65 10 -220 12 -195 3 -176 4 113 6
l348 2 24 -25z m2644 -550 c47 -24 81 -72 81 -113 0 -68 -85 -143 -144 -128
-14 3 -41 21 -60 40 -32 30 -36 39 -36 85 0 46 4 55 40 91 44 44 72 50 119 25z
m-598 -61 c16 -15 32 -37 35 -48 4 -12 41 -95 84 -186 42 -91 87 -192 100
-225 13 -33 48 -118 78 -190 64 -152 102 -260 102 -290 0 -32 -39 -63 -88 -71
-40 -6 -45 -5 -79 32 -19 22 -47 68 -62 104 l-27 65 -225 3 -225 2 -32 -67
c-38 -80 -57 -105 -100 -127 -39 -20 -71 -20 -100 0 -52 36 -49 50 73 329 31
72 88 207 125 300 84 210 152 356 173 373 47 39 126 37 168 -4z m-5140 -11
c82 -38 128 -83 170 -168 66 -134 49 -300 -41 -399 -89 -97 -199 -136 -387
-136 l-103 0 0 -121 c0 -120 0 -121 -29 -150 -52 -51 -141 -31 -170 39 -8 20
-11 154 -9 481 l3 453 25 20 c24 19 36 20 250 16 l225 -4 66 -31z m3843 16
l26 -20 0 -389 0 -390 23 -14 c12 -8 37 -17 55 -21 51 -11 79 -85 51 -137 -24
-44 -125 -61 -202 -34 -48 18 -73 40 -100 91 -20 37 -22 55 -22 252 l0 213
-43 0 c-51 0 -58 13 -69 122 l-6 71 55 -6 c68 -8 68 -9 68 118 0 102 8 121 65
150 41 20 67 19 99 -6z m-2552 -268 c80 -31 169 -101 213 -166 68 -103 77
-249 24 -370 -30 -69 -114 -149 -196 -188 -60 -28 -78 -32 -148 -31 -98 1
-182 32 -266 99 -98 77 -164 244 -140 355 32 150 160 283 308 320 56 14 141 6
205 -19z m1265 -3 c24 -12 62 -41 83 -64 62 -67 69 -108 71 -390 1 -275 1
-274 -72 -296 -29 -8 -45 -8 -69 2 -55 23 -58 36 -66 280 l-7 224 -28 28 c-23
23 -36 28 -78 28 -42 0 -56 -5 -83 -29 l-33 -29 4 -235 3 -234 -44 -21 c-37
-19 -49 -20 -83 -11 -76 21 -75 16 -75 258 0 252 -6 277 -74 299 -50 16 -86 8
-118 -26 -46 -49 -48 -61 -48 -275 0 -192 -1 -206 -21 -231 -29 -36 -105 -37
-146 -2 l-28 24 -3 347 c-2 258 0 351 9 361 9 11 31 14 88 12 l76 -3 8 -47 9
-48 42 35 c109 89 222 86 318 -9 l37 -37 37 36 c88 85 189 104 291 53z m2137
20 c42 -18 40 -41 -9 -161 -87 -207 -187 -451 -230 -559 -71 -178 -122 -256
-195 -301 -36 -22 -124 -40 -159 -32 -41 9 -121 63 -121 82 0 9 10 42 23 74
16 43 26 57 37 53 75 -29 122 -16 164 47 l34 51 -60 126 c-151 317 -248 571
-234 608 4 10 26 14 89 14 l84 0 40 -87 c22 -49 71 -166 108 -261 l68 -174 19
49 c11 26 36 98 57 158 48 139 97 254 119 279 37 41 115 58 166 34z m1100 -10
c3 -13 6 -174 6 -358 0 -302 -2 -337 -18 -356 -66 -82 -157 -43 -173 73 -11
82 -23 573 -15 616 8 41 14 44 122 46 66 1 72 -1 78 -21z m-5337 0 c6 -7 16
-37 23 -66 l12 -53 47 48 c71 75 136 98 195 72 39 -18 40 -26 10 -166 -4 -19
-11 -23 -47 -23 -77 -1 -161 -56 -186 -123 -6 -16 -11 -105 -11 -205 0 -153
-3 -180 -18 -198 -39 -49 -105 -58 -148 -20 -37 31 -43 90 -43 448 -1 254 0
278 17 287 25 15 137 14 149 -1z m2532 3 c7 -5 16 -29 18 -55 l6 -46 30 26
c16 14 53 37 81 52 142 73 323 -12 407 -193 29 -61 33 -80 33 -150 -1 -102
-23 -176 -77 -256 -50 -75 -100 -112 -184 -135 -96 -26 -182 -4 -247 65 -17
17 -33 31 -36 31 -4 0 -6 -84 -6 -187 l1 -188 -57 -3 c-65 -3 -114 16 -127 51
-10 25 -14 305 -12 720 l1 277 78 0 c42 0 83 -4 91 -9z"/>
<path d="M4970 8009 c-137 -18 -355 -96 -484 -175 -34 -20 -102 -70 -153 -111
-253 -203 -404 -458 -474 -797 -63 -303 38 -717 242 -991 379 -510 1054 -680
1604 -403 134 68 226 133 327 232 216 211 376 571 394 886 7 119 -23 322 -66
450 -35 105 -104 246 -168 344 -58 89 -209 241 -327 329 -105 78 -281 167
-399 202 -142 41 -339 54 -496 34z m269 -204 c62 -32 120 -127 121 -195 0 -71
-69 -176 -128 -194 -17 -6 -19 -25 -25 -257 -4 -140 -3 -258 2 -266 7 -13 42
17 181 153 l173 170 -14 52 c-23 93 19 188 107 240 34 20 50 22 115 19 89 -4
125 -24 170 -95 48 -75 38 -182 -23 -256 -57 -69 -154 -94 -234 -61 -20 8 -41
11 -48 7 -6 -4 -83 -80 -171 -170 -130 -133 -157 -165 -145 -173 10 -7 66 -8
155 -5 77 3 208 6 290 6 l150 0 23 50 c43 93 160 133 256 86 44 -22 90 -87
100 -141 20 -106 -84 -235 -189 -235 -44 0 -106 32 -145 74 l-34 36 -308 0
c-240 0 -308 -3 -308 -12 0 -7 72 -87 160 -178 l158 -165 40 23 c76 42 188 21
245 -47 34 -41 61 -130 52 -174 -8 -34 -36 -91 -57 -117 -93 -111 -290 -78
-351 59 -16 36 -18 57 -13 107 l6 63 -155 153 c-86 84 -165 154 -176 156 -18
3 -19 -5 -19 -253 0 -235 1 -256 18 -261 42 -13 69 -35 97 -80 26 -41 30 -57
30 -120 l0 -73 -50 -51 c-59 -60 -117 -85 -176 -76 -48 8 -107 36 -131 63 -27
29 -58 105 -58 142 0 87 53 172 122 193 l40 12 -7 255 c-4 141 -9 259 -12 264
-2 4 -9 7 -14 7 -6 0 -86 -77 -179 -170 l-169 -170 15 -28 c41 -79 -24 -215
-119 -251 -112 -43 -248 26 -282 142 -29 100 7 195 98 255 55 36 140 38 186 4
l31 -23 91 88 c104 101 229 239 229 253 0 6 -115 10 -304 10 l-304 0 -21 -35
c-25 -43 -72 -72 -127 -81 -81 -12 -203 69 -225 149 -22 84 11 166 90 222 35
25 52 30 100 30 78 0 135 -37 164 -106 l21 -49 303 0 c167 0 303 3 303 6 0 10
-54 70 -192 212 l-128 132 -30 -15 c-36 -19 -120 -19 -164 -1 -43 18 -103 71
-123 109 -17 34 -20 129 -5 168 16 41 71 98 115 121 32 16 54 19 108 16 83 -4
140 -39 176 -108 21 -40 23 -54 19 -127 l-5 -82 161 -161 c88 -88 166 -159
172 -157 8 3 12 83 14 264 l2 261 -25 6 c-35 9 -95 65 -111 103 -17 38 -18
104 -4 155 12 43 91 119 142 136 39 13 120 6 157 -13z"/>
<path d="M3993 5708 c-6 -7 -12 -22 -15 -33 -15 -58 -60 -223 -65 -239 -5 -18
-4 -18 21 2 15 11 62 37 106 58 69 32 78 39 70 55 -6 10 -10 36 -10 58 0 48
-9 73 -23 64 -6 -3 -7 -1 -3 6 19 31 -58 58 -81 29z"/>
<path d="M4691 4909 c-32 -13 -43 -36 -36 -78 6 -39 8 -40 61 -51 30 -6 60
-17 67 -24 27 -28 347 -32 347 -5 0 5 -13 9 -28 9 -27 0 -29 2 -27 43 3 71 4
75 26 82 11 4 18 10 14 13 -9 9 -402 19 -424 11z"/>
<path d="M7581 3669 c-5 -13 -30 -78 -56 -144 -26 -66 -51 -132 -56 -147 l-8
-28 129 0 c71 0 135 -3 144 -6 10 -4 16 -1 16 7 0 21 -128 311 -144 328 -13
13 -16 12 -25 -10z"/>
<path d="M2180 3664 c0 -61 3 -133 7 -159 l6 -47 106 4 c123 4 169 22 207 77
45 66 25 163 -43 208 -21 14 -55 19 -155 23 l-128 5 0 -111z"/>
<path d="M3640 3514 c-97 -42 -140 -138 -109 -248 37 -133 267 -162 339 -43
43 71 37 177 -13 234 -58 66 -144 89 -217 57z"/>
<path d="M5663 3509 c-82 -24 -122 -106 -107 -219 16 -119 145 -185 253 -130
70 35 112 136 91 219 -29 114 -120 164 -237 130z"/>
<path d="M375 10049 c-10 -16 5 -123 19 -132 8 -6 8 -10 -1 -14 -30 -12 -8
-18 62 -18 l75 0 0 81 c0 65 -3 83 -16 88 -27 10 -132 7 -139 -5z"/>
<path d="M1080 9965 l0 -95 48 0 c26 0 64 3 85 6 l37 7 -1 88 -1 89 -84 0 -84
0 0 -95z"/>
<path d="M1430 9965 l0 -95 84 0 84 0 4 88 c2 48 3 90 1 95 -2 4 -42 7 -89 7
l-84 0 0 -95z"/>
<path d="M346 9603 c-4 -39 -5 -76 -2 -82 3 -5 0 -11 -6 -13 -8 -3 -4 -9 10
-17 20 -11 22 -19 22 -96 l0 -85 85 0 85 0 0 79 c0 51 -4 82 -12 89 -7 6 -45
13 -85 17 l-72 7 -5 52 c-4 28 -7 67 -9 86 -2 24 -5 12 -11 -37z"/>
<path d="M99 9482 l-76 -3 3 -67 c2 -37 8 -68 14 -70 7 -3 9 5 6 20 -3 12 -7
42 -10 66 -6 40 -5 42 19 42 24 0 25 -3 25 -55 0 -30 -4 -55 -10 -55 -5 0 -10
-7 -10 -15 0 -8 -7 -15 -15 -15 -8 0 -15 -4 -15 -10 0 -6 31 -10 74 -10 73 0
74 0 80 28 3 15 2 54 -2 87 l-7 60 -76 -3z"/>
<path d="M200 9302 c-6 -2 -10 -44 -10 -93 l0 -89 -85 0 -85 0 0 -92 c0 -64
-3 -88 -10 -78 -8 13 -10 12 -10 -2 0 -16 11 -18 89 -18 l89 0 7 89 7 89 36 6
c21 3 58 6 85 6 l47 0 0 89 0 89 -75 4 c-42 2 -80 2 -85 0z"/>
<path d="M550 9220 c0 -49 -1 -92 -2 -95 -4 -8 301 -10 309 -2 3 4 -23 7 -58
8 -58 0 -133 16 -87 18 13 1 18 15 24 59 8 68 17 82 55 82 16 0 29 5 29 10 0
6 -16 10 -35 10 -27 0 -35 -4 -35 -17 0 -16 -2 -16 -11 -3 -8 11 -12 12 -16 3
-7 -18 -23 -16 -23 2 0 12 -15 15 -75 15 l-75 0 0 -90z"/>
<path d="M552 8828 l3 -93 82 0 83 0 0 67 c0 37 -4 78 -10 92 -9 25 -13 26
-85 26 l-76 0 3 -92z"/>
<path d="M758 8733 c-26 -4 -27 -5 -30 -94 -2 -53 1 -90 7 -92 15 -6 153 -3
157 3 2 3 2 47 0 98 l-3 92 -52 -1 c-29 -1 -64 -4 -79 -6z"/>
<path d="M546 8470 c-3 -39 -3 -82 0 -95 6 -24 9 -25 90 -25 l84 0 0 95 0 95
-84 0 -83 0 -7 -70z"/>
<path d="M729 8278 c0 -40 -2 -83 -5 -95 -4 -22 -2 -23 80 -23 47 0 86 3 88 8
2 4 2 46 0 95 l-3 87 -80 0 -79 0 -1 -72z"/>
</g>
</svg>
